<mxfile host="app.diagrams.net" modified="2022-02-07T14:06:20.992Z" agent="5.0 (Windows NT 10.0; Win64; x64) AppleWebKit/537.36 (KHTML, like Gecko) Chrome/97.0.4692.71 Safari/537.36" etag="YVbXtEACzQZBRRCutwL3" version="16.1.2" type="github">
  <diagram name="Page-1" id="13e1069c-82ec-6db2-03f1-153e76fe0fe0">
    <mxGraphModel dx="2522" dy="762" grid="1" gridSize="10" guides="1" tooltips="1" connect="1" arrows="1" fold="1" page="1" pageScale="1" pageWidth="1100" pageHeight="850" background="none" math="0" shadow="0">
      <root>
        <mxCell id="0" />
        <mxCell id="1" parent="0" />
        <mxCell id="7baba1c4bc27f4b0-2" value="tRPC-Go&lt;br&gt;Server" style="shape=umlLifeline;perimeter=lifelinePerimeter;whiteSpace=wrap;html=1;container=1;collapsible=0;recursiveResize=0;outlineConnect=0;rounded=1;shadow=0;comic=0;labelBackgroundColor=none;strokeWidth=1;fontFamily=Verdana;fontSize=12;align=center;fillColor=#fff2cc;strokeColor=#d6b656;" parent="1" vertex="1">
          <mxGeometry x="240" y="80" width="100" height="760" as="geometry" />
        </mxCell>
        <mxCell id="2AClWOA5RidFeWTNfvVQ-56" value="" style="html=1;points=[];perimeter=orthogonalPerimeter;" vertex="1" parent="7baba1c4bc27f4b0-2">
          <mxGeometry x="45" y="684" width="10" height="40" as="geometry" />
        </mxCell>
        <mxCell id="7baba1c4bc27f4b0-3" value="prometheus&lt;br&gt;gateway" style="shape=umlLifeline;perimeter=lifelinePerimeter;whiteSpace=wrap;html=1;container=1;collapsible=0;recursiveResize=0;outlineConnect=0;rounded=1;shadow=0;comic=0;labelBackgroundColor=none;strokeWidth=1;fontFamily=Verdana;fontSize=12;align=center;fillColor=#fff2cc;strokeColor=#d6b656;" parent="1" vertex="1">
          <mxGeometry x="680" y="80" width="100" height="740" as="geometry" />
        </mxCell>
        <mxCell id="2AClWOA5RidFeWTNfvVQ-15" value="" style="html=1;points=[];perimeter=orthogonalPerimeter;" vertex="1" parent="7baba1c4bc27f4b0-3">
          <mxGeometry x="20" y="170" width="10" height="50" as="geometry" />
        </mxCell>
        <mxCell id="2AClWOA5RidFeWTNfvVQ-42" value="" style="html=1;points=[];perimeter=orthogonalPerimeter;" vertex="1" parent="7baba1c4bc27f4b0-3">
          <mxGeometry x="45" y="430" width="10" height="60" as="geometry" />
        </mxCell>
        <mxCell id="2AClWOA5RidFeWTNfvVQ-45" value="" style="html=1;points=[];perimeter=orthogonalPerimeter;" vertex="1" parent="7baba1c4bc27f4b0-3">
          <mxGeometry x="45" y="510" width="10" height="30" as="geometry" />
        </mxCell>
        <mxCell id="7baba1c4bc27f4b0-4" value="prometheus&lt;br&gt;server" style="shape=umlLifeline;perimeter=lifelinePerimeter;whiteSpace=wrap;html=1;container=1;collapsible=0;recursiveResize=0;outlineConnect=0;rounded=1;shadow=0;comic=0;labelBackgroundColor=none;strokeWidth=1;fontFamily=Verdana;fontSize=12;align=center;fillColor=#fff2cc;strokeColor=#d6b656;" parent="1" vertex="1">
          <mxGeometry x="-170" y="80" width="100" height="740" as="geometry" />
        </mxCell>
        <mxCell id="2AClWOA5RidFeWTNfvVQ-59" value="配置加载" style="html=1;verticalAlign=bottom;endArrow=block;rounded=0;edgeStyle=orthogonalEdgeStyle;curved=1;startArrow=none;" edge="1" parent="7baba1c4bc27f4b0-4" source="2AClWOA5RidFeWTNfvVQ-60">
          <mxGeometry width="80" relative="1" as="geometry">
            <mxPoint x="50.5" y="150" as="sourcePoint" />
            <mxPoint x="50" y="240" as="targetPoint" />
            <Array as="points">
              <mxPoint x="120.5" y="150" />
              <mxPoint x="120.5" y="240" />
            </Array>
          </mxGeometry>
        </mxCell>
        <mxCell id="2AClWOA5RidFeWTNfvVQ-60" value="" style="html=1;points=[];perimeter=orthogonalPerimeter;" vertex="1" parent="7baba1c4bc27f4b0-4">
          <mxGeometry x="45.5" y="140" width="10" height="120" as="geometry" />
        </mxCell>
        <mxCell id="2AClWOA5RidFeWTNfvVQ-65" value="target.json reload" style="html=1;verticalAlign=bottom;endArrow=block;rounded=0;edgeStyle=orthogonalEdgeStyle;curved=1;startArrow=none;" edge="1" parent="7baba1c4bc27f4b0-4" source="7baba1c4bc27f4b0-4">
          <mxGeometry width="80" relative="1" as="geometry">
            <mxPoint x="55.5" y="420" as="sourcePoint" />
            <mxPoint x="50" y="510" as="targetPoint" />
            <Array as="points">
              <mxPoint x="121" y="420" />
              <mxPoint x="121" y="510" />
            </Array>
          </mxGeometry>
        </mxCell>
        <mxCell id="2AClWOA5RidFeWTNfvVQ-68" value="" style="html=1;points=[];perimeter=orthogonalPerimeter;" vertex="1" parent="7baba1c4bc27f4b0-4">
          <mxGeometry x="45" y="410" width="10" height="320" as="geometry" />
        </mxCell>
        <mxCell id="7baba1c4bc27f4b0-5" value="tip task" style="shape=umlLifeline;perimeter=lifelinePerimeter;whiteSpace=wrap;html=1;container=1;collapsible=0;recursiveResize=0;outlineConnect=0;rounded=1;shadow=0;comic=0;labelBackgroundColor=none;strokeWidth=1;fontFamily=Verdana;fontSize=12;align=center;fillColor=#fff2cc;strokeColor=#d6b656;" parent="1" vertex="1">
          <mxGeometry x="400" y="80" width="100" height="740" as="geometry" />
        </mxCell>
        <mxCell id="7baba1c4bc27f4b0-6" value="tipmp" style="shape=umlLifeline;perimeter=lifelinePerimeter;whiteSpace=wrap;html=1;container=1;collapsible=0;recursiveResize=0;outlineConnect=0;rounded=1;shadow=0;comic=0;labelBackgroundColor=none;strokeWidth=1;fontFamily=Verdana;fontSize=12;align=center;fillColor=#fff2cc;strokeColor=#d6b656;" parent="1" vertex="1">
          <mxGeometry x="540" y="80" width="100" height="740" as="geometry" />
        </mxCell>
        <mxCell id="2AClWOA5RidFeWTNfvVQ-6" value="" style="html=1;points=[];perimeter=orthogonalPerimeter;" vertex="1" parent="7baba1c4bc27f4b0-6">
          <mxGeometry x="45" y="80" width="10" height="40" as="geometry" />
        </mxCell>
        <mxCell id="2AClWOA5RidFeWTNfvVQ-9" value="" style="html=1;points=[];perimeter=orthogonalPerimeter;" vertex="1" parent="7baba1c4bc27f4b0-6">
          <mxGeometry x="90" y="150" width="10" height="80" as="geometry" />
        </mxCell>
        <mxCell id="2AClWOA5RidFeWTNfvVQ-11" value="return" style="html=1;verticalAlign=bottom;endArrow=open;dashed=1;endSize=8;exitX=0;exitY=0.95;rounded=0;" edge="1" source="2AClWOA5RidFeWTNfvVQ-9" parent="7baba1c4bc27f4b0-6" target="7baba1c4bc27f4b0-6">
          <mxGeometry relative="1" as="geometry">
            <mxPoint x="70" y="230" as="targetPoint" />
          </mxGeometry>
        </mxCell>
        <mxCell id="2AClWOA5RidFeWTNfvVQ-10" value="心跳数据拉取" style="html=1;verticalAlign=bottom;endArrow=block;entryX=0;entryY=0;rounded=0;" edge="1" target="2AClWOA5RidFeWTNfvVQ-9" parent="7baba1c4bc27f4b0-6" source="7baba1c4bc27f4b0-6">
          <mxGeometry x="-0.1348" relative="1" as="geometry">
            <mxPoint x="50" y="220" as="sourcePoint" />
            <mxPoint x="1" as="offset" />
          </mxGeometry>
        </mxCell>
        <mxCell id="7baba1c4bc27f4b0-8" value="metrics exporter" style="shape=umlLifeline;perimeter=lifelinePerimeter;whiteSpace=wrap;html=1;container=1;collapsible=0;recursiveResize=0;outlineConnect=0;rounded=1;shadow=0;comic=0;labelBackgroundColor=none;strokeWidth=1;fontFamily=Verdana;fontSize=12;align=center;fillColor=#fff2cc;strokeColor=#d6b656;" parent="1" vertex="1">
          <mxGeometry x="100" y="80" width="100" height="740" as="geometry" />
        </mxCell>
        <mxCell id="2AClWOA5RidFeWTNfvVQ-19" value="" style="html=1;points=[];perimeter=orthogonalPerimeter;" vertex="1" parent="7baba1c4bc27f4b0-8">
          <mxGeometry x="45.5" y="200" width="10" height="80" as="geometry" />
        </mxCell>
        <mxCell id="2AClWOA5RidFeWTNfvVQ-53" value="" style="html=1;points=[];perimeter=orthogonalPerimeter;" vertex="1" parent="7baba1c4bc27f4b0-8">
          <mxGeometry x="45.5" y="620" width="10" height="40" as="geometry" />
        </mxCell>
        <mxCell id="2AClWOA5RidFeWTNfvVQ-1" value="tipgo&lt;br&gt;Server" style="shape=umlLifeline;perimeter=lifelinePerimeter;whiteSpace=wrap;html=1;container=1;collapsible=0;recursiveResize=0;outlineConnect=0;rounded=1;shadow=0;comic=0;labelBackgroundColor=none;strokeWidth=1;fontFamily=Verdana;fontSize=12;align=center;fillColor=#fff2cc;strokeColor=#d6b656;" vertex="1" parent="1">
          <mxGeometry x="-40" y="80" width="100" height="740" as="geometry" />
        </mxCell>
        <mxCell id="2AClWOA5RidFeWTNfvVQ-2" value="" style="html=1;points=[];perimeter=orthogonalPerimeter;rounded=0;shadow=0;comic=0;labelBackgroundColor=none;strokeWidth=1;fontFamily=Verdana;fontSize=12;align=center;" vertex="1" parent="2AClWOA5RidFeWTNfvVQ-1">
          <mxGeometry x="45" y="60" width="10" height="230" as="geometry" />
        </mxCell>
        <mxCell id="2AClWOA5RidFeWTNfvVQ-48" value="" style="html=1;points=[];perimeter=orthogonalPerimeter;" vertex="1" parent="2AClWOA5RidFeWTNfvVQ-1">
          <mxGeometry x="45" y="570" width="10" height="30" as="geometry" />
        </mxCell>
        <mxCell id="2AClWOA5RidFeWTNfvVQ-7" value="ticker:60s，心跳上报" style="html=1;verticalAlign=bottom;endArrow=block;entryX=0;entryY=0;rounded=0;" edge="1" target="2AClWOA5RidFeWTNfvVQ-6" parent="1" source="2AClWOA5RidFeWTNfvVQ-2">
          <mxGeometry relative="1" as="geometry">
            <mxPoint x="440" y="320" as="sourcePoint" />
          </mxGeometry>
        </mxCell>
        <mxCell id="2AClWOA5RidFeWTNfvVQ-8" value="return" style="html=1;verticalAlign=bottom;endArrow=open;dashed=1;endSize=8;exitX=0;exitY=0.95;rounded=0;" edge="1" source="2AClWOA5RidFeWTNfvVQ-6" parent="1" target="2AClWOA5RidFeWTNfvVQ-1">
          <mxGeometry relative="1" as="geometry">
            <mxPoint x="440" y="396" as="targetPoint" />
          </mxGeometry>
        </mxCell>
        <mxCell id="2AClWOA5RidFeWTNfvVQ-12" value="" style="html=1;points=[];perimeter=orthogonalPerimeter;" vertex="1" parent="1">
          <mxGeometry x="360" y="220" width="10" height="40" as="geometry" />
        </mxCell>
        <mxCell id="2AClWOA5RidFeWTNfvVQ-13" value="RPC逻辑处理" style="html=1;verticalAlign=bottom;endArrow=block;entryX=0;entryY=0;rounded=0;" edge="1" target="2AClWOA5RidFeWTNfvVQ-12" parent="1">
          <mxGeometry relative="1" as="geometry">
            <mxPoint x="290" y="220" as="sourcePoint" />
          </mxGeometry>
        </mxCell>
        <mxCell id="2AClWOA5RidFeWTNfvVQ-14" value="return" style="html=1;verticalAlign=bottom;endArrow=open;dashed=1;endSize=8;exitX=0;exitY=0.95;rounded=0;" edge="1" source="2AClWOA5RidFeWTNfvVQ-12" parent="1" target="7baba1c4bc27f4b0-2">
          <mxGeometry relative="1" as="geometry">
            <mxPoint x="290" y="296" as="targetPoint" />
          </mxGeometry>
        </mxCell>
        <mxCell id="2AClWOA5RidFeWTNfvVQ-16" value="targer数据落地" style="html=1;verticalAlign=bottom;endArrow=block;entryX=0;entryY=0;rounded=0;" edge="1" target="2AClWOA5RidFeWTNfvVQ-15" parent="1" source="2AClWOA5RidFeWTNfvVQ-9">
          <mxGeometry relative="1" as="geometry">
            <mxPoint x="730" y="210" as="sourcePoint" />
          </mxGeometry>
        </mxCell>
        <mxCell id="2AClWOA5RidFeWTNfvVQ-17" value="return" style="html=1;verticalAlign=bottom;endArrow=open;dashed=1;endSize=8;exitX=0;exitY=0.95;rounded=0;entryX=1;entryY=0.85;entryDx=0;entryDy=0;entryPerimeter=0;" edge="1" source="2AClWOA5RidFeWTNfvVQ-15" parent="1" target="2AClWOA5RidFeWTNfvVQ-9">
          <mxGeometry relative="1" as="geometry">
            <mxPoint x="720" y="286" as="targetPoint" />
          </mxGeometry>
        </mxCell>
        <mxCell id="2AClWOA5RidFeWTNfvVQ-20" value="指标数据上报" style="html=1;verticalAlign=bottom;endArrow=block;entryX=0;entryY=0;rounded=0;" edge="1" target="2AClWOA5RidFeWTNfvVQ-19" parent="1">
          <mxGeometry relative="1" as="geometry">
            <mxPoint x="5" y="280" as="sourcePoint" />
          </mxGeometry>
        </mxCell>
        <mxCell id="2AClWOA5RidFeWTNfvVQ-21" value="return" style="html=1;verticalAlign=bottom;endArrow=open;dashed=1;endSize=8;exitX=0;exitY=0.95;rounded=0;entryX=0.9;entryY=0.983;entryDx=0;entryDy=0;entryPerimeter=0;" edge="1" source="2AClWOA5RidFeWTNfvVQ-19" parent="1">
          <mxGeometry relative="1" as="geometry">
            <mxPoint x="9.5" y="356.0899999999999" as="targetPoint" />
          </mxGeometry>
        </mxCell>
        <mxCell id="2AClWOA5RidFeWTNfvVQ-22" value="" style="html=1;points=[];perimeter=orthogonalPerimeter;" vertex="1" parent="1">
          <mxGeometry x="520" y="270" width="10" height="80" as="geometry" />
        </mxCell>
        <mxCell id="2AClWOA5RidFeWTNfvVQ-23" value="ticker:60s 心跳数据查询" style="html=1;verticalAlign=bottom;endArrow=block;entryX=0;entryY=0;rounded=0;" edge="1" target="2AClWOA5RidFeWTNfvVQ-22" parent="1" source="7baba1c4bc27f4b0-5">
          <mxGeometry relative="1" as="geometry">
            <mxPoint x="450" y="400" as="sourcePoint" />
          </mxGeometry>
        </mxCell>
        <mxCell id="2AClWOA5RidFeWTNfvVQ-24" value="return" style="html=1;verticalAlign=bottom;endArrow=open;dashed=1;endSize=8;exitX=0;exitY=0.95;rounded=0;" edge="1" source="2AClWOA5RidFeWTNfvVQ-22" parent="1" target="7baba1c4bc27f4b0-5">
          <mxGeometry relative="1" as="geometry">
            <mxPoint x="450" y="476" as="targetPoint" />
          </mxGeometry>
        </mxCell>
        <mxCell id="2AClWOA5RidFeWTNfvVQ-25" value="" style="html=1;points=[];perimeter=orthogonalPerimeter;" vertex="1" parent="1">
          <mxGeometry x="530" y="385" width="10" height="105" as="geometry" />
        </mxCell>
        <mxCell id="2AClWOA5RidFeWTNfvVQ-26" value="拉取target列表数据生成" style="html=1;verticalAlign=bottom;endArrow=block;entryX=0;entryY=0;rounded=0;" edge="1" target="2AClWOA5RidFeWTNfvVQ-25" parent="1" source="7baba1c4bc27f4b0-5">
          <mxGeometry relative="1" as="geometry">
            <mxPoint x="470" y="520" as="sourcePoint" />
          </mxGeometry>
        </mxCell>
        <mxCell id="2AClWOA5RidFeWTNfvVQ-27" value="return" style="html=1;verticalAlign=bottom;endArrow=open;dashed=1;endSize=8;exitX=0;exitY=0.95;rounded=0;" edge="1" source="2AClWOA5RidFeWTNfvVQ-25" parent="1" target="7baba1c4bc27f4b0-5">
          <mxGeometry relative="1" as="geometry">
            <mxPoint x="470" y="596" as="targetPoint" />
          </mxGeometry>
        </mxCell>
        <mxCell id="2AClWOA5RidFeWTNfvVQ-28" value="" style="html=1;points=[];perimeter=orthogonalPerimeter;" vertex="1" parent="1">
          <mxGeometry x="650" y="410" width="10" height="70" as="geometry" />
        </mxCell>
        <mxCell id="2AClWOA5RidFeWTNfvVQ-29" value="dispatch" style="html=1;verticalAlign=bottom;endArrow=block;entryX=0;entryY=0;rounded=0;" edge="1" target="2AClWOA5RidFeWTNfvVQ-28" parent="1">
          <mxGeometry relative="1" as="geometry">
            <mxPoint x="540" y="410" as="sourcePoint" />
          </mxGeometry>
        </mxCell>
        <mxCell id="2AClWOA5RidFeWTNfvVQ-30" value="return" style="html=1;verticalAlign=bottom;endArrow=open;dashed=1;endSize=8;exitX=0;exitY=0.95;rounded=0;entryX=1;entryY=0.876;entryDx=0;entryDy=0;entryPerimeter=0;" edge="1" source="2AClWOA5RidFeWTNfvVQ-28" parent="1" target="2AClWOA5RidFeWTNfvVQ-25">
          <mxGeometry relative="1" as="geometry">
            <mxPoint x="540" y="480" as="targetPoint" />
          </mxGeometry>
        </mxCell>
        <mxCell id="2AClWOA5RidFeWTNfvVQ-32" value="生成target.json" style="html=1;verticalAlign=bottom;endArrow=block;entryX=0;entryY=0;rounded=0;exitX=1;exitY=0.143;exitDx=0;exitDy=0;exitPerimeter=0;" edge="1" parent="1" source="2AClWOA5RidFeWTNfvVQ-28">
          <mxGeometry relative="1" as="geometry">
            <mxPoint x="800" y="400" as="sourcePoint" />
            <mxPoint x="-120" y="420" as="targetPoint" />
          </mxGeometry>
        </mxCell>
        <mxCell id="2AClWOA5RidFeWTNfvVQ-33" value="return" style="html=1;verticalAlign=bottom;endArrow=open;dashed=1;endSize=8;rounded=0;" edge="1" source="7baba1c4bc27f4b0-4" parent="1" target="2AClWOA5RidFeWTNfvVQ-28">
          <mxGeometry relative="1" as="geometry">
            <mxPoint x="800" y="476" as="targetPoint" />
            <mxPoint x="-111" y="463.02" as="sourcePoint" />
          </mxGeometry>
        </mxCell>
        <mxCell id="2AClWOA5RidFeWTNfvVQ-38" value="本地指标上报" style="html=1;verticalAlign=bottom;endArrow=block;rounded=0;edgeStyle=orthogonalEdgeStyle;curved=1;startArrow=none;" edge="1" parent="1" source="2AClWOA5RidFeWTNfvVQ-39" target="7baba1c4bc27f4b0-2">
          <mxGeometry width="80" relative="1" as="geometry">
            <mxPoint x="330" y="444.5" as="sourcePoint" />
            <mxPoint x="410" y="444.5" as="targetPoint" />
            <Array as="points">
              <mxPoint x="360" y="330" />
              <mxPoint x="360" y="420" />
            </Array>
          </mxGeometry>
        </mxCell>
        <mxCell id="2AClWOA5RidFeWTNfvVQ-39" value="" style="html=1;points=[];perimeter=orthogonalPerimeter;" vertex="1" parent="1">
          <mxGeometry x="280" y="290" width="10" height="80" as="geometry" />
        </mxCell>
        <mxCell id="2AClWOA5RidFeWTNfvVQ-43" value="跨防火墙网络指标上报" style="html=1;verticalAlign=bottom;endArrow=block;entryX=0;entryY=0;rounded=0;curved=1;" edge="1" target="2AClWOA5RidFeWTNfvVQ-42" parent="1" source="2AClWOA5RidFeWTNfvVQ-1">
          <mxGeometry relative="1" as="geometry">
            <mxPoint x="660.5" y="510" as="sourcePoint" />
          </mxGeometry>
        </mxCell>
        <mxCell id="2AClWOA5RidFeWTNfvVQ-44" value="return" style="html=1;verticalAlign=bottom;endArrow=open;dashed=1;endSize=8;exitX=0;exitY=0.95;rounded=0;curved=1;" edge="1" source="2AClWOA5RidFeWTNfvVQ-42" parent="1" target="2AClWOA5RidFeWTNfvVQ-1">
          <mxGeometry relative="1" as="geometry">
            <mxPoint x="660" y="567" as="targetPoint" />
          </mxGeometry>
        </mxCell>
        <mxCell id="2AClWOA5RidFeWTNfvVQ-46" value="gateway指标数据拉取" style="html=1;verticalAlign=bottom;endArrow=block;entryX=0;entryY=0;rounded=0;curved=1;" edge="1" target="2AClWOA5RidFeWTNfvVQ-45" parent="1" source="7baba1c4bc27f4b0-4">
          <mxGeometry relative="1" as="geometry">
            <mxPoint x="735.5" y="580" as="sourcePoint" />
          </mxGeometry>
        </mxCell>
        <mxCell id="2AClWOA5RidFeWTNfvVQ-47" value="return" style="html=1;verticalAlign=bottom;endArrow=open;dashed=1;endSize=8;exitX=0;exitY=0.95;rounded=0;curved=1;" edge="1" source="2AClWOA5RidFeWTNfvVQ-45" parent="1" target="7baba1c4bc27f4b0-4">
          <mxGeometry relative="1" as="geometry">
            <mxPoint x="735" y="618" as="targetPoint" />
          </mxGeometry>
        </mxCell>
        <mxCell id="2AClWOA5RidFeWTNfvVQ-49" value="指标拉取" style="html=1;verticalAlign=bottom;endArrow=block;entryX=0;entryY=0;rounded=0;curved=1;" edge="1" target="2AClWOA5RidFeWTNfvVQ-48" parent="1">
          <mxGeometry relative="1" as="geometry">
            <mxPoint x="-120" y="650" as="sourcePoint" />
          </mxGeometry>
        </mxCell>
        <mxCell id="2AClWOA5RidFeWTNfvVQ-50" value="return" style="html=1;verticalAlign=bottom;endArrow=open;dashed=1;endSize=8;exitX=0;exitY=0.95;rounded=0;curved=1;" edge="1" source="2AClWOA5RidFeWTNfvVQ-48" parent="1" target="7baba1c4bc27f4b0-4">
          <mxGeometry relative="1" as="geometry">
            <mxPoint x="-110" y="669" as="targetPoint" />
          </mxGeometry>
        </mxCell>
        <mxCell id="2AClWOA5RidFeWTNfvVQ-54" value="exporter指标数据拉取" style="html=1;verticalAlign=bottom;endArrow=block;entryX=0;entryY=0;rounded=0;curved=1;" edge="1" target="2AClWOA5RidFeWTNfvVQ-53" parent="1" source="7baba1c4bc27f4b0-4">
          <mxGeometry relative="1" as="geometry">
            <mxPoint x="75.5" y="700" as="sourcePoint" />
          </mxGeometry>
        </mxCell>
        <mxCell id="2AClWOA5RidFeWTNfvVQ-55" value="return" style="html=1;verticalAlign=bottom;endArrow=open;dashed=1;endSize=8;exitX=0;exitY=0.95;rounded=0;curved=1;" edge="1" source="2AClWOA5RidFeWTNfvVQ-53" parent="1" target="7baba1c4bc27f4b0-4">
          <mxGeometry relative="1" as="geometry">
            <mxPoint x="75" y="738" as="targetPoint" />
          </mxGeometry>
        </mxCell>
        <mxCell id="2AClWOA5RidFeWTNfvVQ-57" value="Server指标数据拉取" style="html=1;verticalAlign=bottom;endArrow=block;entryX=0;entryY=0;rounded=0;curved=1;" edge="1" target="2AClWOA5RidFeWTNfvVQ-56" parent="1" source="7baba1c4bc27f4b0-4">
          <mxGeometry relative="1" as="geometry">
            <mxPoint x="220" y="764" as="sourcePoint" />
          </mxGeometry>
        </mxCell>
        <mxCell id="2AClWOA5RidFeWTNfvVQ-58" value="return" style="html=1;verticalAlign=bottom;endArrow=open;dashed=1;endSize=8;exitX=0;exitY=0.95;rounded=0;curved=1;" edge="1" source="2AClWOA5RidFeWTNfvVQ-56" parent="1" target="7baba1c4bc27f4b0-4">
          <mxGeometry relative="1" as="geometry">
            <mxPoint x="220" y="840" as="targetPoint" />
          </mxGeometry>
        </mxCell>
      </root>
    </mxGraphModel>
  </diagram>
</mxfile>
